PathFileType	4	(X/Y/Z)	E:\Marcel_BSc\Ayumi_22_01_2025\22-01-2025\conv_dl_3.trc
DataRate	CameraRate	NumFrames	NumMarkers	Units	OrigDataRate	OrigDataStartFrame	OrigNumFrames
200.0	200.0	6	47	mm	200.0	2017	2304	
Frame#	Time	FHD			LBHD			RBHD			RBAR			LBAR			RSACR			LSACR			USACR			C7			CLAV			T10			RSHO			LSHO			LTHI1			LTHI3			LTHI2			LTIB1			LTIB2			LTIB3			LMMAL			LLMAL			LHEE			LMT1			LMT5			LMT3			RTHI1			RTHI2			RTHI3			RTIB1			RTIB3			RTIB2			RLMAL			RMMAL			RHEE			RMT5			RMT1			RMT3			LDUPA			LMUPA			LUUPA			LRAD			RUL			RRAD			RUFIN			RMUPA			RDUPA			RUUPA			
		X1	Y1	Z1	X2	Y2	Z2	X3	Y3	Z3	X4	Y4	Z4	X5	Y5	Z5	X6	Y6	Z6	X7	Y7	Z7	X8	Y8	Z8	X9	Y9	Z9	X10	Y10	Z10	X11	Y11	Z11	X12	Y12	Z12	X13	Y13	Z13	X14	Y14	Z14	X15	Y15	Z15	X16	Y16	Z16	X17	Y17	Z17	X18	Y18	Z18	X19	Y19	Z19	X20	Y20	Z20	X21	Y21	Z21	X22	Y22	Z22	X23	Y23	Z23	X24	Y24	Z24	X25	Y25	Z25	X26	Y26	Z26	X27	Y27	Z27	X28	Y28	Z28	X29	Y29	Z29	X30	Y30	Z30	X31	Y31	Z31	X32	Y32	Z32	X33	Y33	Z33	X34	Y34	Z34	X35	Y35	Z35	X36	Y36	Z36	X37	Y37	Z37	X38	Y38	Z38	X39	Y39	Z39	X40	Y40	Z40	X41	Y41	Z41	X42	Y42	Z42	X43	Y43	Z43	X44	Y44	Z44	X45	Y45	Z45	X46	Y46	Z46	X47	Y47	Z47	
2017	10.075	105.22189	1624.7694	-626.65302	119.59776	1603.6166	-567.10016	144.67157	1594.7816	-698.60608	207.97876	239.39702	-1731.4984	224.27019	251.39212	490.81091	319.07709	964.50171	-671.06256	319.71387	964.25507	-598.68451	313.06284	975.00452	-634.33698	281.9776	1401.5939	-623.90515	141.73648	1342.7537	-639.6759	303.29639	1130.0425	-630.45392	219.52989	1413.8835	-771.02545	198.85349	1406.7391	-489.40652	255.02345	617.0614	-445.44278	275.84579	555.33252	-457.2132	225.8546	556.85535	-448.11832	259.32712	243.77438	-433.75433	309.7095	239.57988	-440.15796	276.44919	182.59793	-440.94894	261.43161	75.462967	-521.95404	282.50061	71.653252	-448.38019	319.96213	35.559956	-493.23758	122.73311	45.873806	-477.73984	151.21326	27.180107	-403.0123	125.03474	43.088669	-443.57773	266.48865	618.01282	-811.19904	238.38756	558.7984	-810.14807	289.33377	557.33221	-802.3797	277.5304	285.08081	-828.05835	296.07108	221.98131	-821.23749	327.02811	279.98141	-818.71112	294.24649	73.988167	-809.19891	255.77011	81.118042	-741.633	329.71124	30.591337	-761.04956	151.39525	36.486382	-841.74554	130.84526	42.419819	-791.20752	138.32375	40.1856	-820.58887	269.64474	1326.1001	-300.95984	240.62335	1366.6682	-304.06427	254.03589	1372.1522	-364.49994	182.53905	1357.3733	24.766068	290.21664	1351.2723	-1270.5369	230.94467	1365.2744	-1274.6809	232.73932	1376.6924	-1344.9191	291.8248	1368.9456	-875.02924	295.0802	1360.1793	-936.14252	309.06146	1323.2644	-867.61505
2018	10.08	105.12927	1624.6969	-626.6358	119.50555	1603.5425	-567.08679	144.57425	1594.7844	-698.51019	208.03662	239.37918	-1731.5085	224.32805	251.38339	490.81857	319.07559	964.58563	-671.08282	319.79611	964.24829	-598.75287	313.11337	975.0025	-634.38879	281.98734	1401.6184	-623.87134	141.76035	1342.72	-639.60852	303.33624	1130.0486	-630.45038	219.48895	1413.967	-770.93616	198.82048	1406.7642	-489.36459	255.10013	617.05859	-445.41925	275.95187	555.36285	-457.2247	225.92284	556.85785	-448.09506	259.35422	243.77481	-433.76297	309.61832	239.59958	-440.14221	276.44855	182.59315	-440.94397	261.41986	75.453842	-521.96423	282.52002	71.638252	-448.37964	319.95404	35.55978	-493.2348	122.7383	45.841122	-477.73465	150.92418	27.655613	-402.8129	125.02389	43.094051	-443.57782	266.52972	617.99066	-811.18207	238.37434	558.83203	-810.16107	289.36533	557.33368	-802.34924	277.5282	285.09195	-828.06244	296.07883	221.97983	-821.22687	327.01343	279.99423	-818.71027	294.24973	73.984894	-809.1991	255.7641	81.141258	-741.6192	329.71201	30.577099	-761.04401	151.40211	36.493374	-841.74622	130.88098	42.444489	-791.14606	138.32503	40.188885	-820.58728	269.51193	1326.1744	-300.88824	240.46515	1366.756	-304.01257	253.94478	1372.2574	-364.42627	182.29198	1357.6029	24.812565	290.06854	1351.4388	-1270.5415	230.55519	1365.8079	-1274.4979	232.63795	1376.8518	-1344.9336	291.78882	1368.9694	-874.99976	295.03064	1360.1541	-936.15051	308.93979	1323.2568	-867.5957
2019	10.085	105.0176	1624.6438	-626.59784	119.32876	1603.5768	-567.0791	144.4899	1594.7653	-698.43677	208.08583	239.3688	-1731.5038	224.40758	251.39001	490.81656	319.0899	964.5658	-671.15472	319.88965	964.2146	-598.83423	313.14432	975.00653	-634.42401	281.98712	1401.6359	-623.83215	141.79654	1342.6648	-639.56665	303.34659	1130.0471	-630.44849	219.44675	1413.9998	-770.87311	198.80031	1406.7544	-489.32504	255.21944	617.06335	-445.42194	276.03491	555.34656	-457.22531	226.01613	556.86273	-448.08533	259.36856	243.7739	-433.74503	309.66486	239.60811	-440.11896	276.51865	182.58249	-440.91052	261.42236	75.461418	-521.9433	282.51294	71.634842	-448.3812	319.9534	35.573723	-493.23325	122.73794	45.864769	-477.74448	150.95135	27.634253	-402.80847	125.04153	43.044384	-443.60022	266.53571	618.04657	-811.16669	238.44009	558.83038	-810.17743	289.34177	557.39789	-802.32257	277.53934	285.07385	-828.07471	296.09149	221.97934	-821.22162	327.02087	279.99741	-818.69995	294.25711	73.98024	-809.20184	255.76657	81.135544	-741.62476	329.7088	30.565125	-761.05682	151.41026	36.490143	-841.76056	130.86929	42.477192	-791.13525	138.3215	40.188831	-820.59796	269.3736	1326.2721	-300.80838	240.34225	1366.8243	-303.95325	253.8678	1372.3005	-364.35431	182.019	1357.7572	24.830494	289.96378	1351.6423	-1270.5385	230.63661	1365.701	-1274.6539	232.48438	1377.0747	-1344.9259	291.77435	1368.9636	-874.97327	294.99017	1360.1345	-936.16608	308.83344	1323.2368	-867.59363
2020	10.09	104.93858	1624.5669	-626.56354	119.23054	1603.5311	-567.0202	144.39902	1594.7177	-698.36981	208.11589	239.35617	-1731.511	224.52592	251.38268	490.78687	319.07715	964.60107	-671.21246	319.97528	964.18237	-598.88965	313.16562	975.01843	-634.46533	282.00259	1401.6522	-623.79517	141.82654	1342.6329	-639.51038	303.35522	1130.0312	-630.45312	219.43687	1414.0229	-770.79742	198.90471	1406.4596	-489.32907	255.31425	617.05646	-445.44336	276.0976	555.31262	-457.23117	226.11403	556.85974	-448.05103	259.40479	243.76271	-433.73004	309.71573	239.62823	-440.116	276.569	182.8241	-440.62915	261.44113	75.453857	-521.94604	282.50992	71.658882	-448.37662	319.95172	35.572449	-493.23984	122.72997	45.880825	-477.74487	150.93759	27.638546	-402.79742	125.05472	43.026287	-443.58566	266.57086	618.03705	-811.12537	238.46529	558.79919	-810.1969	289.38452	557.37494	-802.29901	277.54169	285.09912	-828.0769	296.10925	221.9709	-821.22217	327.03793	280.00769	-818.68066	294.25577	73.987427	-809.20349	255.7711	81.14006	-741.61719	329.70178	30.571682	-761.0575	151.41167	36.491444	-841.77411	130.9355	42.517426	-791.07239	138.33009	40.19405	-820.59552	269.2449	1326.3633	-300.73792	240.2112	1366.9053	-303.90292	253.76472	1372.4271	-364.29971	181.7606	1357.9407	24.84333	289.86203	1351.9526	-1270.4762	230.54547	1365.9009	-1274.6707	232.34282	1377.2877	-1344.9032	291.72754	1368.9869	-874.96063	294.93469	1360.1674	-936.14142	308.73419	1323.2145	-867.5954
2021	10.095	104.87372	1624.4377	-626.57111	119.18107	1603.4033	-566.93665	144.31584	1594.6786	-698.30536	207.97588	239.56737	-1731.7479	224.59084	251.3933	490.77661	319.07071	964.64264	-671.23712	320.05807	964.1377	-598.97168	313.14517	975.05988	-634.49103	282.01889	1401.6472	-623.75281	141.85139	1342.5887	-639.44293	303.37198	1130.02	-630.4502	219.43643	1414.0601	-770.71924	198.86972	1406.4885	-489.29364	255.4064	617.04279	-445.45828	276.22745	555.33582	-457.23572	226.2321	556.66638	-448.39059	259.42386	243.75832	-433.72	309.73538	239.63707	-440.09613	276.54846	182.83653	-440.625	261.43762	75.452728	-521.94543	282.49979	71.651787	-448.3837	319.93762	35.584225	-493.23587	122.74497	45.871082	-477.74432	150.90182	27.674868	-402.79718	125.03278	43.057541	-443.58148	266.59308	618.09631	-811.11768	238.47638	558.82385	-810.20258	289.40527	557.40778	-802.28735	277.59027	285.10779	-828.07086	296.12952	221.99341	-821.21716	327.06647	280.00305	-818.68414	294.2554	73.984818	-809.20667	255.77554	81.142059	-741.62646	329.7121	30.557014	-761.05682	151.40523	36.50901	-841.77148	130.78131	42.424313	-791.2522	138.33038	40.186871	-820.60162	269.11972	1326.4944	-300.64804	240.07504	1366.983	-303.8537	253.6729	1372.4963	-364.21411	181.51714	1358.1207	24.864347	289.72726	1352.2332	-1270.4496	230.40965	1366.116	-1274.6704	232.17073	1377.5607	-1344.8274	291.68512	1368.9896	-874.94946	294.8703	1360.1832	-936.13556	308.60397	1323.2382	-867.57062
2022	10.1	104.7578	1624.4308	-626.46484	119.07644	1603.3171	-566.90277	144.23148	1594.6356	-698.23804	208.21344	239.33669	-1731.5217	224.6505	251.39362	490.7966	319.07416	964.67657	-671.29175	320.10178	964.13934	-599.02368	313.14847	975.05273	-634.52979	282.02881	1401.6669	-623.68951	141.88782	1342.5591	-639.38007	303.384	1130.0122	-630.44269	219.42863	1414.0853	-770.65234	198.84564	1406.4886	-489.2529	255.52278	617.04297	-445.44949	276.34232	555.30377	-457.25143	226.35669	556.61865	-448.38962	259.48865	243.73669	-433.71695	309.77274	239.64355	-440.07407	276.60196	182.82649	-440.60233	261.44302	75.444275	-521.94775	282.51953	71.636673	-448.38895	319.96799	35.561672	-493.24634	122.72406	45.868584	-477.74298	150.91461	27.654455	-402.78629	125.03877	43.050468	-443.58481	266.62317	618.09729	-811.08527	238.50421	558.8656	-810.1358	289.42322	557.41992	-802.23834	277.61124	285.10745	-828.07892	296.16339	222.00615	-821.2016	327.10669	280.01407	-818.65259	294.24344	73.994598	-809.21387	255.76547	81.130211	-741.61877	329.71014	30.584587	-761.04016	151.40128	36.496315	-841.7724	130.84254	42.495674	-791.15698	138.32341	40.189342	-820.60663	269.01358	1326.6172	-300.55045	239.95572	1367.1019	-303.78595	253.61728	1372.5713	-364.12225	181.27065	1358.3311	24.906456	289.57355	1352.5315	-1270.4304	229.99109	1366.6509	-1274.4502	232.06639	1377.6903	-1344.8756	291.65439	1368.9963	-874.92651	294.80902	1360.2192	-936.12537	308.5097	1323.2103	-867.57605
